<?xml version="1.0" encoding="UTF-8"?><svg xmlns="http://www.w3.org/2000/svg" viewBox="0 0 49.46 60"><defs><style>.d{fill:#1baa36;}</style></defs><g id="a"/><g id="b"><g id="c"><path class="d" d="M23.48,5.6c2.28-1.41,4.9-2.2,7.59-2.28,6.41-.39,16.95-.23,18.39-.23V.03c-5.45,0-13.56-.2-20.31,.39-4.45,.39-9.12,3.64-11.18,6.12-2.57,3.11-4.22,9.39-4.39,11.08-.56-.6-1.07-1.24-1.53-1.92-.37-.6-.09-3.27-1.27-4.71-1.19-1.44-7.05-2.04-8.05-1.82C1.37,9.43-.22,12.32,.02,13.86c.36,2.24,6.58,3.48,9.25,2.96,.73,.9,2.06,3.18,2.06,3.18h-.1c-2.25,.04-4.39,.95-5.97,2.54-1.58,1.6-2.47,3.74-2.47,5.98v25.37c0,.29,.14,.58,.37,.78,.24,.21,.55,.33,.88,.33h.42v1.83c0,.41,.09,.83,.27,1.21,.17,.39,.43,.74,.76,1.03,.33,.3,.72,.53,1.16,.69,.43,.16,.89,.24,1.35,.24h14.82c.88,0,1.72-.34,2.34-.94,.62-.6,.97-1.41,.97-2.26v-1.8h21.66V18.33H17.08c.13-2.02,.87-4.97,2.16-7.69,.92-2.03,2.38-3.78,4.24-5.04Zm-1.6,24.4h.05c1.97,1.33,6.9,5.68,8.06,10.2-2.88,.67-11.09,.8-16.22-2.97-5.47-4.02-4.5-9.45-3.51-9.73,3.78-1.06,9.09,.8,11.62,2.5Z"/></g></g></svg>