<svg xmlns="http://www.w3.org/2000/svg" width="153" height="36" viewBox="0 0 153 36" fill="none">
<g clip-path="url(#clip0_42_73)">
<path d="M39.9203 0.447148H46.5319C47.6182 0.42644 48.6789 0.780542 49.5372 1.4505C49.9694 1.84356 50.308 2.32955 50.5277 2.87232C50.7474 3.4151 50.8426 4.0007 50.8062 4.58557C50.7698 5.17045 50.6028 5.73955 50.3175 6.25056C50.0322 6.76156 49.6361 7.20133 49.1585 7.53714C49.6812 7.86024 50.1095 8.3168 50.3999 8.86038C50.6902 9.40396 50.8322 10.0152 50.8114 10.6318C50.8552 11.2014 50.7624 11.7732 50.5406 12.2991C50.3189 12.8251 49.9747 13.2897 49.5372 13.654C48.6744 14.3136 47.6154 14.6608 46.5319 14.6392h29.9203V0.447148ZM48.287 12.294C48.5112 12.0864 48.6864 11.8311 48.7997 11.5466C48.9131 11.2621 48.9617 10.9558 48.9421 10.65C48.9629 10.3476 48.9147 10.0445 48.8011 9.76372C48.6876 9.48297 48.5117 9.23204 48.287 9.03009C47.7952 8.6152 47.1673 8.39967 46.5259 8.42566H41.8316V12.8259H46.5259C47.1571 12.8646 47.7814 12.676 48.287 12.294ZM48.287 6.10464C48.5101 5.89627 48.6846 5.64077 48.7979 5.3565C48.9112 5.07224 48.9604 4.76627 48.9421 4.46058C48.9629 4.15732 48.9147 3.85328 48.8012 3.57155C48.6877 3.28982 48.5118 3.03781 48.287 2.83466C47.7895 2.43316 47.163 2.22888 46.5259 2.26045H41.8316V6.65467H46.5259C47.1616 6.68297 47.7863 6.48142 48.287 6.0865V6.10464Z" fill="#19141B"/>
<path d="M63.6195 4.80518H65.4227V14.6272H63.6195V4.80518ZM55.343 8.06307H58.3122C58.8082 8.02679 59.3063 8.09102 59.7771 8.25196C60.2479 8.41289 60.6818 8.66724 61.053 8.99994C61.3625 9.30506 61.6052 9.6718 61.7656 10.0767C61.9261 10.4815 62.0007 10.9156 61.9847 11.3512C61.9988 11.7892 61.9234 12.2255 61.7632 12.633C61.6029 13.0406 61.3612 13.4107 61.053 13.7206C60.2964 14.3796 59.3107 14.71 58.3122 14.6393H53.5038V4.80518H55.3069L55.343 8.06307ZM55.343 13.0134H58.2521C58.7545 13.048 59.2523 12.8976 59.6526 12.5903C59.9792 12.2616 60.1627 11.8159 60.1627 11.3512C60.1627 10.8865 59.9792 10.4408 59.6526 10.1121C59.2532 9.80257 58.7553 9.65001 58.2521 9.68295H55.343V13.0134Z" fill="#19141B"/>
<path d="M68.6503 4.80518H70.4534V9.09665L75.1477 4.80518H77.588L72.1785 9.71317L77.588 14.6272H75.1477L70.4534 10.5896V14.6272H68.6503V4.80518Z" fill="#19141B"/>
<path d="M82.192 14.5005L77.8765 4.82959H79.9381L83.2078 12.2399L86.5016 4.82959H88.431L83.8269 15.1835C83.4401 16.1846 82.9549 17.1444 82.3784 18.0485C82.1338 18.3462 81.826 18.5849 81.4775 18.7471C81.129 18.9092 80.7488 18.9907 80.3648 18.9854C80.2386 18.9854 80.0883 18.9854 79.92 18.9854H78.9824V17.3595H79.5835C80.0414 17.3956 80.4961 17.2576 80.8577 16.9726C81.263 16.5255 81.5792 16.0043 81.7893 15.4374L82.192 14.5005Z" fill="#19141B"/>
<path d="M90.2042 4.80518H99.4004V14.6272H97.5972V6.42506H92.0555V14.6272H90.2523L90.2042 4.80518Z" fill="#19141B"/>
<path d="M40.9359 23.3795C42.3165 22.0263 44.1681 21.269 46.0959 21.269C48.0238 21.269 49.8754 22.0263 51.256 23.3795C52.5945 24.797 53.3408 26.6772 53.3408 28.632C53.3408 30.5868 52.5945 32.467 51.256 33.8845C49.8769 35.2405 48.0247 35.9998 46.0959 35.9998C44.1671 35.9998 42.315 35.2405 40.9359 33.8845C39.6 32.4656 38.8556 30.5859 38.8556 28.632C38.8556 26.6781 39.6 24.7984 40.9359 23.3795ZM49.8976 24.6609C49.4019 24.1536 48.8107 23.7506 48.1585 23.4755C47.5063 23.2005 46.8062 23.0588 46.0989 23.0588C45.3917 23.0588 44.6915 23.2005 44.0393 23.4755C43.3871 23.7506 42.7959 24.1536 42.3003 24.6609C41.798 25.1849 41.4048 25.8045 41.1437 26.4833C40.8826 27.162 40.7588 27.8864 40.7796 28.6139C40.7585 29.3488 40.8831 30.0806 41.1463 30.7666C41.4094 31.4525 41.8058 32.0789 42.3123 32.6092C43.3245 33.6132 44.6892 34.1761 46.1109 34.1761C47.5327 34.1761 48.8974 33.6132 49.9096 32.6092C50.4161 32.0789 50.8125 31.4525 51.0756 30.7666C51.3388 30.0806 51.4634 29.3488 51.4423 28.6139C51.4599 27.8847 51.3323 27.1593 51.067 26.4805C50.8018 25.8016 50.4041 25.1829 49.8976 24.6609Z" fill="#099858"/>
<path d="M65.7954 29.2182L62.6279 35.7099H60.7826L57.6091 29.2182V35.7099H55.8059V25.8999H57.8856L61.7263 33.7998L65.5911 25.8999H67.6287V35.7219H65.8255L65.7954 29.2182Z" fill="#099858"/>
<path d="M79.8482 28.765H77.8527C77.5943 28.3036 77.2122 27.9247 76.7498 27.6714C76.2875 27.418 75.7636 27.3006 75.2381 27.3325C74.7969 27.3211 74.3585 27.4048 73.9521 27.5779C73.5458 27.7509 73.1809 28.0093 72.882 28.3358C72.2665 29.0097 71.9384 29.8995 71.9684 30.814C71.9413 31.7334 72.2687 32.6278 72.882 33.3103C73.1844 33.631 73.5503 33.8844 73.9562 34.0541C74.362 34.2238 74.7987 34.3061 75.2381 34.2955C75.7636 34.3274 76.2875 34.2099 76.7498 33.9566C77.2122 33.7033 77.5943 33.3243 77.8527 32.863H79.8482C79.519 33.7991 78.9023 34.6056 78.0871 35.1659C77.2435 35.7281 76.2499 36.019 75.2381 36C74.5689 36.0133 73.904 35.8894 73.284 35.6359C72.664 35.3823 72.1018 35.0044 71.6318 34.5252C71.1513 34.0381 70.7742 33.4581 70.5232 32.8202C70.2721 32.1823 70.1524 31.4998 70.1712 30.814C70.1513 30.1308 70.2706 29.4507 70.5218 28.8156C70.773 28.1805 71.1507 27.6038 71.6318 27.1209C72.4756 26.2842 73.5794 25.7642 74.7587 25.6475C75.938 25.5309 77.1214 25.8249 78.1111 26.4802C78.9217 27.0317 79.5315 27.8338 79.8482 28.765Z" fill="#099858"/>
<path d="M82.3065 25.8999H84.1097V30.1914L88.8039 25.8999H91.2683L85.8588 30.8139L91.2683 35.7219H88.828L84.1337 31.6904V35.7219H82.3306L82.3065 25.8999Z" fill="#099858"/>
<path d="M108.098 11.2606L106.673 14.6575H104.69L110.911 0H112.996L119.199 14.6575H117.149L115.725 11.2606H108.098ZM114.956 9.44728L111.914 2.19409L108.867 9.44728H114.956Z" fill="#19141B"/>
<path d="M128.599 9.58003C129.029 9.7932 129.388 10.1284 129.63 10.5441C129.873 10.9598 129.989 11.4379 129.964 11.9192C129.975 12.2858 129.909 12.6506 129.769 12.9894C129.629 13.3281 129.419 13.6329 129.152 13.8836C128.836 14.1604 128.468 14.3713 128.069 14.5041C127.671 14.6369 127.251 14.6889 126.832 14.6573H120.888V4.5028H126.73C127.575 4.44221 128.409 4.72037 129.05 5.27647C129.344 5.56965 129.568 5.92555 129.706 6.31774C129.843 6.70992 129.892 7.12831 129.847 7.5418C129.801 7.95529 129.664 8.35326 129.445 8.70613C129.226 9.059 128.931 9.3577 128.581 9.58003H128.599ZM122.721 12.983H126.64C127.632 12.983 128.131 12.5538 128.131 11.7016C128.131 10.8493 127.632 10.4202 126.64 10.4202H122.721V12.983ZM122.721 8.75196H126.556C127.548 8.75196 128.047 8.32886 128.047 7.47056C128.047 6.61227 127.548 6.19521 126.556 6.19521H122.721V8.75196Z" fill="#19141B"/>
<path d="M131.449 6.18325V4.50293H140.861V6.18325H137.068V14.6453H135.235V6.18325H131.449Z" fill="#19141B"/>
<path d="M147.329 4.21293C148.014 4.19763 148.694 4.32751 149.326 4.5941C149.957 4.8607 150.526 5.25804 150.995 5.76028C151.481 6.26622 151.861 6.86492 152.113 7.52102C152.365 8.17712 152.483 8.87733 152.462 9.58029C152.482 10.2867 152.362 10.99 152.111 11.6498C151.859 12.3096 151.48 12.9127 150.995 13.4245C150.018 14.4 148.697 14.9475 147.32 14.9475C145.943 14.9475 144.622 14.4 143.644 13.4245C142.676 12.3858 142.155 11.0038 142.196 9.58029C142.174 8.87883 142.29 8.17995 142.539 7.5242C142.788 6.86845 143.163 6.26888 143.644 5.76028C144.116 5.25634 144.688 4.85806 145.322 4.59143C145.957 4.32481 146.641 4.19583 147.329 4.21293ZM144.967 12.1431C145.268 12.471 145.634 12.7327 146.041 12.9117C146.448 13.0907 146.888 13.1831 147.332 13.1831C147.776 13.1831 148.215 13.0907 148.622 12.9117C149.029 12.7327 149.395 12.471 149.697 12.1431C150.321 11.4394 150.654 10.5227 150.629 9.58029C150.662 8.63664 150.327 7.71722 149.697 7.0175C149.403 6.6791 149.038 6.41076 148.629 6.23197C148.219 6.05318 147.775 5.96844 147.329 5.98392C146.877 5.96853 146.428 6.05314 146.012 6.23175C145.597 6.41035 145.225 6.6786 144.925 7.0175C144.327 7.73626 143.999 8.64338 143.999 9.58029C143.999 10.5172 144.327 11.4243 144.925 12.1431H144.967Z" fill="#19141B"/>
<g clip-path="url(#clip1_42_73)">
<path d="M6.79548 11.5857H6.99264C5.64271 11.6082 4.35562 12.1563 3.40846 13.1121C2.4613 14.0679 1.9298 15.355 1.92838 16.6962V32.0644C1.93 32.2549 2.00731 32.4371 2.14347 32.5712C2.27963 32.7053 2.46361 32.7805 2.65536 32.7805H2.89563V33.9557C2.89482 34.2243 2.94749 34.4905 3.05062 34.7389C3.15374 34.9873 3.30528 35.2129 3.49652 35.4029C3.68776 35.5929 3.91492 35.7434 4.16495 35.8459C4.41497 35.9483 4.68292 36.0007 4.95337 35.9999H13.2829C13.8287 35.9999 14.3521 35.7845 14.738 35.4011C15.1239 35.0177 15.3406 34.4978 15.3406 33.9557V32.805H28.8392V11.5796H10.2456C10.3258 9.77747 10.7655 8.00914 11.5394 6.37727C12.0912 5.15598 12.9717 4.10972 14.0838 3.35381C15.4527 2.5049 17.0238 2.03183 18.6367 1.98285C22.4873 1.75028 28.8084 1.8482 28.8084 1.8482V0.0120909C26.4056 0.0120909 21.5385 -0.110313 17.4846 0.244668C14.817 0.477242 12.0138 2.42964 10.7816 3.91689C9.2352 5.7836 8.24946 9.54763 8.14472 10.5636C7.81128 10.2025 7.50449 9.81795 7.22675 9.41298C7.00495 9.05187 7.1713 7.44834 6.4628 6.58537C5.7543 5.7224 2.23642 5.36129 1.63265 5.49594C0.819409 5.64895 -0.135524 7.38101 0.0123372 8.30519C0.227969 9.65167 3.95531 10.3984 5.55715 10.0862C5.99457 10.6248 6.51208 11.2491 6.79548 11.5857ZM13.1535 17.7612C14.3364 18.5568 17.2937 21.1702 17.9898 23.8815C16.2648 24.2855 11.3361 24.3589 8.26178 22.1005C4.97802 19.6891 5.55715 16.4269 6.15475 16.2617C8.42197 15.6251 11.6071 16.7391 13.1227 17.7612H13.1535Z" fill="#099858"/>
</g>
<rect x="32.8159" width="2.01324" height="36" rx="1" fill="#2D282F"/>
</g>
<defs>
<clipPath id="clip0_42_73">
<rect width="153" height="36" fill="white"/>
</clipPath>
<clipPath id="clip1_42_73">
<rect width="28.8084" height="36" fill="white"/>
</clipPath>
</defs>
</svg>